PathFileType	4	(X/Y/Z)	HSS_walk3.trc
DataRate	CameraRate	NumFrames	NumMarkers	Units	OrigDataRate	OrigDataStartFrame	OrigNumFrames
120.0	120.0	4	44	mm	120.0	745	992
Frame#	Time		R.Shoulder		Offset		L.Shoulder		R.Elbow		R.Wrist.Radial		R.Wrist		R.Hand		L.Elbow		L.Wrist.Radial		L.Wrist		L.Hand		R.Hip		V.Sacral		L.PSIS		L.Hip		R.Thigh.Upper		R.Thigh.Front		R.Thigh.Rear		X.Shell.Lower.Thigh.Right		R.Knee.Lateral		R.Shank.Upper		R.Shank.Front		R.Shank.Rear		X.Shell.Lower.Shank.Right		R.Ankle.Lateral		R.Heel		R.Toe		L.Thigh.Upper		L.Thigh.Front		L.Thigh.Rear		X.Shell.Lower.Thigh.Left		L.Knee.Lateral		L.Shank.Upper		L.Shank.Front		L.Shank.Rear		X.Shell.Lower.Shank.Left		L.Ankle.Lateral		L.Heel		L.Toe		R.Troc		L.Troc		R.PSIS		L.ASIS		R.ASIS
			X1	Y1	Z1	X2	Y2	Z2	X3	Y3	Z3	X4	Y4	Z4	X5	Y5	Z5	X6	Y6	Z6	X7	Y7	Z7	X8	Y8	Z8	X9	Y9	Z9	X10	Y10	Z10	X11	Y11	Z11	X12	Y12	Z12	X13	Y13	Z13	X14	Y14	Z14	X15	Y15	Z15	X16	Y16	Z16	X17	Y17	Z17	X18	Y18	Z18	X19	Y19	Z19	X20	Y20	Z20	X21	Y21	Z21	X22	Y22	Z22	X23	Y23	Z23	X24	Y24	Z24	X25	Y25	Z25	X26	Y26	Z26	X27	Y27	Z27	X28	Y28	Z28	X29	Y29	Z29	X30	Y30	Z30	X31	Y31	Z31	X32	Y32	Z32	X33	Y33	Z33	X34	Y34	Z34	X35	Y35	Z35	X36	Y36	Z36	X37	Y37	Z37	X38	Y38	Z38	X39	Y39	Z39	X40	Y40	Z40	X41	Y41	Z41	X42	Y42	Z42	X43	Y43	Z43	X44	Y44	Z44

745	6.20000	1168.20654	1441.24109	-38.95480	1031.29431	1360.32690	-303.72745	1148.21509	1454.05994	-405.04605	1253.68445	1081.87683	34.43581	1484.61755	970.56946	51.62943	1501.68042	1006.85718	-10.84120	1568.59766	955.06055	39.28983	1023.06561	1122.32629	-443.23810	1039.32776	873.77307	-493.52301	1000.33081	905.52405	-545.25330	1000.54425	817.14050	-551.85181	1161.18042	999.45404	-77.52512	1066.16602	978.20630	-244.97884	1071.96191	984.33551	-283.71222	1203.20166	998.72961	-371.70859	1154.41504	658.39948	-54.84804	1183.14893	617.00824	-69.77131	1124.23743	623.75238	-51.52874	1148.31079	587.91919	-68.62888	1062.55359	491.07712	-89.42402	987.72333	355.20386	-52.17561	993.55847	306.14078	-78.97666	943.33826	337.29565	-65.96232	946.30408	291.98459	-78.44549	832.93359	101.31976	-140.44005	777.55261	83.17368	-191.03651	969.26392	30.35908	-148.16518	1355.74609	690.01538	-369.36932	1385.82715	651.87579	-338.53333	1348.41040	645.77283	-388.54346	1380.92908	623.90930	-367.01984	1360.11792	493.67636	-351.35074	1397.48389	295.89975	-384.86667	1430.38843	283.02515	-365.44775	1379.73474	249.66312	-370.82849	1411.81006	228.06062	-370.23184	1477.32715	75.34396	-317.16910	1434.17090	24.66170	-268.13705	1620.24939	79.11281	-294.74512	1153.03467	851.46216	-39.65814	1241.82471	865.31915	-398.47470	1060.04492	985.75458	-199.45767	1264.36938	965.30182	-316.87311	1224.79224	963.39209	-97.79701
746	6.20833	1179.61353	1440.80945	-40.60800	1042.74707	1359.28857	-305.27814	1159.65125	1452.90112	-406.60315	1264.10571	1081.29041	32.94767	1495.14380	970.46893	50.59289	1512.28918	1006.71448	-11.76722	1579.41956	955.20496	38.40915	1033.97131	1121.44202	-443.86685	1049.00696	872.75940	-493.81158	1010.32275	904.76202	-545.67468	1009.69061	816.26685	-552.03577	1173.21008	998.33179	-77.95248	1078.51697	977.57587	-245.94914	1083.96118	983.68463	-284.44019	1215.76636	998.14642	-372.68307	1165.70703	657.21863	-55.19055	1194.57910	615.80432	-69.58685	1135.56506	622.69940	-51.97853	1159.51807	586.77338	-68.71433	1073.84949	489.91299	-89.30047	996.17218	355.60718	-51.86413	1000.87061	306.27921	-78.30985	951.35474	338.68057	-65.60834	953.44012	293.35675	-78.06625	835.58447	105.45218	-139.50272	779.85327	88.86258	-190.26321	969.46368	30.30517	-147.94795	1369.18201	690.09357	-368.77332	1399.47900	651.89166	-338.47247	1361.44592	645.81573	-387.94052	1394.16138	623.84253	-366.45340	1372.93164	493.03235	-350.24112	1405.06140	294.32434	-382.87082	1437.57239	281.02399	-363.01331	1386.18750	248.83517	-369.20929	1417.99097	226.51163	-367.96994	1479.95776	73.53158	-315.38046	1436.42859	26.90714	-266.40805	1624.66187	66.87144	-293.95068	1164.26562	850.45740	-40.54520	1254.80798	865.86743	-399.17975	1071.84229	984.97040	-200.13477	1276.68555	964.48401	-317.30927	1236.77942	962.28009	-98.21990
747	6.21667	1190.57593	1440.39563	-42.43057	1054.14917	1358.35291	-306.86154	1171.17273	1452.16614	-408.29846	1274.25525	1080.81177	31.22805	1505.26013	969.86102	49.69292	1522.59924	1006.30640	-12.63710	1589.39417	954.84399	37.49977	1045.27478	1120.76672	-444.40146	1059.20703	871.89240	-493.87518	1020.96832	903.92865	-545.99701	1019.64294	815.41968	-551.85529	1185.18018	997.37891	-77.77392	1090.42847	977.29602	-246.96718	1095.91248	983.48151	-285.06122	1227.82556	997.42505	-372.31689	1177.44592	655.99194	-55.76905	1206.38074	614.66339	-70.04847	1147.25525	621.26923	-53.02374	1171.54370	585.59076	-68.95615	1085.86890	488.72620	-89.50358	1005.19965	356.16333	-51.55090	1008.92511	306.69385	-78.03934	959.96625	340.36017	-65.31080	960.96295	294.84619	-77.48882	838.52527	109.86392	-138.48473	782.61676	95.17150	-189.36200	969.89075	30.31689	-147.84061	1382.14148	690.58466	-368.57355	1412.61694	652.20441	-338.66879	1373.71924	646.22687	-387.35083	1406.54285	624.13953	-366.51694	1384.47119	492.82672	-349.57849	1413.24951	294.55585	-379.82977	1445.01306	281.09479	-358.73135	1394.51904	248.84480	-366.30951	1425.75928	226.57701	-364.92401	1488.11450	74.83035	-314.27975	1440.34680	30.23445	-266.06198	1630.51514	57.59897	-293.84344	1175.83557	849.20905	-41.24523	1267.63135	866.35492	-400.62589	1083.90613	984.26715	-201.03706	1288.65979	964.57202	-317.95859	1248.75952	961.17273	-98.65957
748	6.22500	1201.81836	1440.47083	-44.18971	1065.72913	1357.56335	-308.53729	1182.87952	1451.54333	-410.01965	1283.94189	1080.48291	29.41317	1514.68152	969.19672	48.49800	1532.28259	1005.41608	-13.72333	1598.96008	954.20526	36.97946	1057.00793	1119.96216	-445.03168	1069.93274	871.17633	-493.82419	1032.15308	903.10419	-546.26416	1030.33325	814.56647	-551.86084	1197.44983	996.51630	-78.14852	1102.53088	977.36841	-247.65367	1108.01221	983.83069	-285.99747	1240.53442	997.59027	-373.45850	1189.71362	655.11865	-56.12689	1219.04004	613.86084	-69.80753	1159.80957	620.22125	-53.44246	1184.24634	584.54565	-69.17146	1098.87341	487.54913	-89.42664	1014.84802	357.03705	-51.32340	1017.36194	307.25800	-77.68328	969.46490	342.38330	-65.18803	969.27844	296.77151	-77.25635	842.32208	114.79252	-137.40962	785.96112	102.26720	-188.16331	969.95758	30.18593	-147.84370	1394.35803	690.89624	-368.78500	1425.19312	652.58386	-339.03879	1385.17346	646.60370	-387.16837	1418.35669	624.28094	-366.65262	1394.35583	493.59290	-349.86838	1421.35425	294.93637	-377.93002	1454.38367	280.94241	-358.42096	1402.89685	249.80597	-364.04309	1434.17358	227.12422	-364.15897	1494.46704	73.31438	-314.44690	1444.49878	32.62615	-266.46326	1636.41028	52.07858	-295.75882	1187.68140	847.93707	-42.20467	1280.85486	866.77820	-399.64194	1095.95642	983.93219	-201.54037	1301.17151	964.81116	-318.44373	1260.87451	960.29901	-99.16972
